<svg xmlns="http://www.w3.org/2000/svg"  viewBox="0 0 100 100" width="100px" height="100px" baseProfile="basic"><path fill="#787ab5" d="M77.5,41.65c-0.28,0-0.5,0.23-0.5,0.5v4c0,0.28,0.22,0.5,0.5,0.5s0.5-0.22,0.5-0.5v-4 C78,41.88,77.78,41.65,77.5,41.65z M77.5,37.65c-0.28,0-0.5,0.23-0.5,0.5v2c0,0.28,0.22,0.5,0.5,0.5s0.5-0.22,0.5-0.5v-2 C78,37.88,77.78,37.65,77.5,37.65z M77.5,47.65c-0.28,0-0.5,0.23-0.5,0.5v18.67c0,5.42-4.41,9.83-9.84,9.83H33.84 c-5.43,0-9.84-4.41-9.84-9.83V33.49c0-5.42,4.41-9.84,9.84-9.84H67.5c0.28,0,0.5-0.22,0.5-0.5c0-0.27-0.22-0.5-0.5-0.5H33.84 C27.86,22.65,23,27.52,23,33.49v33.33c0,5.97,4.86,10.83,10.84,10.83h33.32c5.98,0,10.84-4.86,10.84-10.83V48.15 C78,47.88,77.78,47.65,77.5,47.65z M77.5,47.65c-0.28,0-0.5,0.23-0.5,0.5v18.67c0,5.42-4.41,9.83-9.84,9.83H33.84 c-5.43,0-9.84-4.41-9.84-9.83V33.49c0-5.42,4.41-9.84,9.84-9.84H67.5c0.28,0,0.5-0.22,0.5-0.5c0-0.27-0.22-0.5-0.5-0.5H33.84 C27.86,22.65,23,27.52,23,33.49v33.33c0,5.97,4.86,10.83,10.84,10.83h33.32c5.98,0,10.84-4.86,10.84-10.83V48.15 C78,47.88,77.78,47.65,77.5,47.65z M77.5,41.65c-0.28,0-0.5,0.23-0.5,0.5v4c0,0.28,0.22,0.5,0.5,0.5s0.5-0.22,0.5-0.5v-4 C78,41.88,77.78,41.65,77.5,41.65z M77.5,37.65c-0.28,0-0.5,0.23-0.5,0.5v2c0,0.28,0.22,0.5,0.5,0.5s0.5-0.22,0.5-0.5v-2 C78,37.88,77.78,37.65,77.5,37.65z M77.5,47.65c-0.28,0-0.5,0.23-0.5,0.5v18.67c0,5.42-4.41,9.83-9.84,9.83H33.84 c-5.43,0-9.84-4.41-9.84-9.83V33.49c0-5.42,4.41-9.84,9.84-9.84H67.5c0.28,0,0.5-0.22,0.5-0.5c0-0.27-0.22-0.5-0.5-0.5H33.84 C27.86,22.65,23,27.52,23,33.49v33.33c0,5.97,4.86,10.83,10.84,10.83h33.32c5.98,0,10.84-4.86,10.84-10.83V48.15 C78,47.88,77.78,47.65,77.5,47.65z M77.5,41.65c-0.28,0-0.5,0.23-0.5,0.5v4c0,0.28,0.22,0.5,0.5,0.5s0.5-0.22,0.5-0.5v-4 C78,41.88,77.78,41.65,77.5,41.65z M77.5,37.65c-0.28,0-0.5,0.23-0.5,0.5v2c0,0.28,0.22,0.5,0.5,0.5s0.5-0.22,0.5-0.5v-2 C78,37.88,77.78,37.65,77.5,37.65z"/><path fill="#f16e7c" d="M83,30.65v39c0,7.17-5.83,13-13,13H31c-7.17,0-13-5.83-13-13v-39c0-7.16,5.83-13,13-13h39 C77.17,17.65,83,23.49,83,30.65z"/><path fill="#1f212b" d="M31,17.654c-7.168,0-13,5.832-13,13v39c0,7.168,5.832,13,13,13h39c7.168,0,13-5.832,13-13v-39 c0-7.169-5.832-13-13-13H31z M31,19.654h39c6.065,0,11,4.935,11,11v39c0,6.065-4.935,11-11,11H31c-6.065,0-11-4.935-11-11v-39 C20,24.589,24.935,19.654,31,19.654z M33.838,22.652C27.862,22.653,23,27.515,23,33.49v33.326c0,5.976,4.862,10.836,10.838,10.836 h33.324C73.138,77.653,78,72.791,78,66.816V48.154c0-0.277-0.224-0.5-0.5-0.5s-0.5,0.224-0.5,0.5v18.662 c0,5.424-4.414,9.838-9.838,9.838H33.838c-5.424,0-9.838-4.414-9.838-9.838V33.49c0-5.424,4.414-9.838,9.838-9.838H67.5 c0.276,0,0.5-0.224,0.5-0.5c0-0.276-0.224-0.5-0.5-0.5H33.838z M77.5,37.654c-0.276,0-0.5,0.223-0.5,0.5v2 c0,0.276,0.224,0.5,0.5,0.5s0.5-0.224,0.5-0.5v-2C78,37.878,77.776,37.654,77.5,37.654z M77.5,41.654c-0.276,0-0.5,0.224-0.5,0.5 v4c0,0.276,0.224,0.5,0.5,0.5s0.5-0.224,0.5-0.5v-4C78,41.877,77.776,41.654,77.5,41.654z"/><path fill="#e3e2e3" d="M71.1,38.66c-1.26,1.71-3.04,3.37-5.35,3.81c-0.25-3-3.75-3.12-3.75-3.12h-4.75L51,74.56v-0.12 l-6.25-35.12H40c0,0-3.5,0.12-3.75,3.12c-2.3-0.44-4.07-2.07-5.33-3.77v-0.01c3.78-2.06,9.18-3.49,15.13-4l4.33,5.03l4.6-5.11 C61.35,35.01,67.1,36.47,71.1,38.66z"/><path fill="#e3e2e3" d="M33.5,32.134c3.877-1.284,9.872-2.694,17.5-2.694c14,0,22.5,4.76,22.5,4.76s-0.43,1.25-1.31,2.78 c-5.14-2.84-12.9-4.54-21.19-4.54c-8.36,0-16.06,1.69-21.19,4.54c-0.88-1.54-1.31-2.79-1.31-2.79S30.261,33.206,33.5,32.134"/><g><path fill="#1f212b" d="M51,75.061c-0.015,0-0.029-0.001-0.044-0.002c-0.258-0.022-0.456-0.239-0.456-0.498v-0.121 L44.331,39.82H40c-0.107,0.005-3.042,0.146-3.252,2.661c-0.012,0.141-0.083,0.271-0.196,0.356 c-0.112,0.086-0.256,0.117-0.396,0.093c-2.088-0.399-3.984-1.732-5.638-3.963c-0.063-0.086-0.098-0.19-0.098-0.298 c0-0.183,0.1-0.361,0.261-0.449c3.854-2.101,9.297-3.542,15.327-4.059c0.158-0.011,0.317,0.05,0.421,0.172l3.959,4.599 l4.22-4.688c0.103-0.114,0.253-0.18,0.405-0.164c6.447,0.435,12.245,1.905,16.327,4.141c0.126,0.069,0.217,0.189,0.248,0.331 c0.031,0.141,0,0.288-0.086,0.404c-1.664,2.258-3.568,3.605-5.659,4.004c-0.14,0.025-0.284-0.008-0.396-0.093 c-0.113-0.086-0.184-0.216-0.196-0.356c-0.21-2.515-3.146-2.657-3.27-2.662h-4.313l-0.853,4.802 c-0.048,0.272-0.307,0.448-0.58,0.405c-0.272-0.048-0.453-0.308-0.405-0.579l0.926-5.215c0.042-0.239,0.25-0.413,0.492-0.413H62 c1.28,0.044,3.641,0.74,4.161,3.01c1.502-0.423,2.905-1.44,4.183-3.034c-3.872-1.986-9.216-3.304-15.155-3.729l-4.437,4.929 c-0.095,0.104-0.23,0.165-0.372,0.165c-0.002,0-0.004,0-0.005,0c-0.144-0.002-0.28-0.064-0.374-0.174l-4.163-4.835 c-5.528,0.499-10.52,1.786-14.165,3.647c1.269,1.573,2.666,2.58,4.165,3.001c0.52-2.269,2.88-2.966,4.144-3.009h4.767 c0.242,0,0.45,0.174,0.492,0.412l5.768,32.41l4.312-24.289c0.048-0.272,0.303-0.456,0.58-0.405 c0.272,0.048,0.453,0.308,0.405,0.579l-4.814,27.12C51.45,74.889,51.24,75.061,51,75.061z"/><path fill="#1f212b" d="M72.189,37.48c-0.082,0-0.165-0.021-0.241-0.062c-5.15-2.846-12.785-4.479-20.948-4.479 c-8.191,0-15.826,1.632-20.947,4.479c-0.239,0.133-0.54,0.048-0.677-0.189c-0.893-1.563-1.331-2.823-1.349-2.876 c-0.079-0.229,0.018-0.481,0.229-0.6c0.073-0.041,1.839-1.019,5.086-2.094c0.264-0.092,0.545,0.056,0.632,0.317 c0.087,0.263-0.055,0.545-0.317,0.632c-2.302,0.762-3.855,1.483-4.531,1.82c0.164,0.406,0.457,1.086,0.881,1.876 c5.255-2.778,12.867-4.365,20.993-4.365c8.1,0,15.712,1.588,20.993,4.367c0.424-0.784,0.717-1.462,0.88-1.867 c-1.797-0.892-9.814-4.5-21.874-4.5c-4.753,0-9.38,0.55-13.755,1.635c-0.264,0.062-0.539-0.098-0.605-0.365 s0.097-0.539,0.365-0.605c4.453-1.104,9.161-1.664,13.995-1.664c13.969,0,22.658,4.776,22.744,4.824 c0.211,0.118,0.307,0.371,0.229,0.6c-0.018,0.053-0.456,1.312-1.349,2.866C72.531,37.391,72.363,37.48,72.189,37.48z"/></g></svg>